<svg xmlns="http://www.w3.org/2000/svg" viewBox="0 0 192 192">
  <rect width="192" height="192" rx="42" fill="#f6f6f4"/>
  <path d="M48 32h55c20 0 34 14 34 34v8c0 20-14 34-34 34H73v44H48z" fill="#d8ff00" opacity=".94"/>
  <path d="M95 32c42 0 74 29 74 70 0 31-18 58-45 70l-22-42c13-6 21-17 21-31 0-18-13-30-32-30h-7z" fill="#1cc6ea" opacity=".86"/>
  <path d="M48 93h54c20 0 35 15 35 35v32H68c-12 0-20-8-20-20z" fill="#ff2c86" opacity=".92"/>
  <path d="M107 123c37 0 62-25 62-60v72c0 17-10 31-25 37-12 5-26 5-39 1-15-5-24-19-24-36 0-8 10-14 26-14z" fill="#c8c7c3" opacity=".78"/>
  <path d="M96 52c18 7 30 22 35 41-7 12-19 19-34 19H78V74c0-10 7-19 18-22z" fill="#36b54d" opacity=".56"/>
</svg>
